<?xml version="1.0" standalone="no"?>
<!DOCTYPE svg PUBLIC "-//W3C//DTD SVG 20010904//EN"
 "http://www.w3.org/TR/2001/REC-SVG-20010904/DTD/svg10.dtd">
<svg version="1.0" xmlns="http://www.w3.org/2000/svg"
 width="48.000000pt" height="48.000000pt" viewBox="0 0 48.000000 48.000000"
 preserveAspectRatio="xMidYMid meet">

<g transform="translate(0.000000,48.000000) scale(0.100000,-0.100000)"
fill="#000000" stroke="none">
<path d="M38 373 c-16 -4 -18 -19 -18 -129 l0 -124 53 6 c31 4 102 -1 175 -11
73 -10 139 -15 167 -11 l45 7 0 124 0 124 -62 -6 c-40 -3 -95 1 -149 11 -81
15 -173 19 -211 9z m334 -37 c73 -1 88 -10 36 -21 -36 -8 -208 15 -208 27 0 5
24 5 53 2 28 -4 82 -8 119 -8z m-267 -5 c3 -5 2 -12 -3 -15 -5 -3 -9 1 -9 9 0
17 3 19 12 6z m30 0 c3 -5 2 -12 -3 -15 -5 -3 -9 1 -9 9 0 17 3 19 12 6z m223
-31 c83 0 108 -12 50 -24 -40 -8 -208 14 -208 27 0 6 16 7 38 3 20 -3 74 -6
120 -6z m-251 -15 c0 -8 -4 -12 -9 -9 -5 3 -6 10 -3 15 9 13 12 11 12 -6z m30
0 c0 -8 -4 -12 -9 -9 -5 3 -6 10 -3 15 9 13 12 11 12 -6z m217 -25 c68 0 87
-3 79 -11 -23 -23 -233 -8 -233 17 0 9 8 10 32 3 18 -5 73 -9 122 -9z m-4 -39
c89 -6 98 -12 42 -24 -13 -3 -64 1 -115 9 -51 7 -125 14 -165 14 -52 0 -71 3
-66 11 5 8 37 9 108 4 55 -4 144 -10 196 -14z m-133 -26 c43 -8 112 -15 153
-15 58 -1 71 -3 56 -11 -11 -7 -45 -9 -90 -5 -39 3 -122 9 -183 12 -106 6
-142 17 -90 27 44 8 76 7 154 -8z m13 -40 c47 -8 114 -15 150 -15 52 -1 61 -3
46 -12 -20 -11 -77 -8 -245 12 -52 6 -105 9 -117 6 -13 -4 -24 -2 -24 3 0 23
78 26 190 6z"/>
</g>
</svg>
